<svg width="18" height="18" viewBox="0 0 18 18" fill="none" xmlns="http://www.w3.org/2000/svg">
  <g clip-path="url(#clip0_702_32808)">
    <path d="M17.5714 5.19685C17.4825 4.85413 17.3042 4.54116 17.0547 4.28992C16.8053 4.03868 16.4936 3.85817 16.1514 3.76684C14.0774 3.52223 11.9897 3.41199 9.90143 3.43684C7.81317 3.41199 5.72549 3.52223 3.65143 3.76684C3.30935 3.85817 2.99763 4.03868 2.74815 4.28992C2.49867 4.54116 2.32036 4.85413 2.23143 5.19685C2.00424 6.47079 1.89377 7.76283 1.90143 9.05685C1.8934 10.3576 2.00386 11.6563 2.23143 12.9369C2.325 13.2741 2.50535 13.5808 2.75453 13.8265C3.0037 14.0722 3.31298 14.2482 3.65143 14.3368C5.72549 14.5814 7.81317 14.6917 9.90143 14.6668C11.9897 14.6917 14.0774 14.5814 16.1514 14.3368C16.4899 14.2482 16.7991 14.0722 17.0483 13.8265C17.2975 13.5808 17.4778 13.2741 17.5714 12.9369C17.799 11.6563 17.9095 10.3576 17.9014 9.05685C17.9091 7.76283 17.7987 6.47079 17.5714 5.19685ZM7.26001 11.6468V6.88685L11.45 9.25685L7.26001 11.6468Z" fill="#757185"/>
  </g>
  <defs>
    <clipPath id="clip0_702_32808">
      <rect width="17.1429" height="17.1429" fill="white" transform="translate(0.427734 0.428711)"/>
    </clipPath>
  </defs>
</svg>
